<svg width="22" height="22" viewBox="0 0 22 22" version="1.1" xmlns="http://www.w3.org/2000/svg"><title>icon-author</title><g stroke="none" stroke-width="1" fill="none" fill-rule="evenodd"><path d="M11 1C5.5 1 1 5.5 1 11s4.5 10 10 10 10-4.5 10-10S16.5 1 11 1z" stroke="#DEDEDE" stroke-width="2"/><path d="M11 16.55c-1.92 0-3.608-.998-4.605-2.456 0-1.536 3.07-2.38 4.605-2.38 1.535 0 4.605.844 4.605 2.38-.997 1.458-2.686 2.456-4.605 2.456z" id="Path" fill="#DEDEDE"/><path d="M11 5.65c1.305 0 2.303.998 2.303 2.303s-.998 2.303-2.303 2.303-2.303-.998-2.303-2.303S9.695 5.65 11 5.65z" fill="#DEDEDE"/></g></svg>